<?xml version="1.0" encoding="UTF-8"?>
<svg version="1.1" xmlns="http://www.w3.org/2000/svg" width="360" height="190">
<path d="M0 0 C1.43653931 -0.00472824 1.43653931 -0.00472824 2.90209961 -0.009552 C3.94374268 -0.00752777 4.98538574 -0.00550354 6.05859375 -0.00341797 C7.12021729 -0.00437469 8.18184082 -0.00533142 9.27563477 -0.00631714 C11.52522847 -0.00699911 13.77482412 -0.00514366 16.02441406 -0.00097656 C19.48116446 0.00437143 22.93778492 -0.00092101 26.39453125 -0.00732422 C28.57421904 -0.00666344 30.75390675 -0.00538228 32.93359375 -0.00341797 C34.49605835 -0.00645432 34.49605835 -0.00645432 36.09008789 -0.009552 C37.04778076 -0.00639984 38.00547363 -0.00324768 38.9921875 0 C39.83966553 0.00079559 40.68714355 0.00159119 41.56030273 0.00241089 C43.49609375 0.12939453 43.49609375 0.12939453 44.49609375 1.12939453 C44.59137595 4.11237667 44.6216155 7.07215798 44.60961914 10.05541992 C44.60976517 10.99190872 44.60991119 11.92839752 44.61006165 12.89326477 C44.60936212 16.00454992 44.6015679 19.11577602 44.59375 22.22705078 C44.59188596 24.37796496 44.59046199 26.52887956 44.58946228 28.67979431 C44.585636 34.35321211 44.57580477 40.02660448 44.5647583 45.70001221 C44.55454655 51.48441219 44.54996517 57.26881627 44.54492188 63.05322266 C44.5341826 74.41195781 44.51710486 85.77067406 44.49609375 97.12939453 C42.01440761 98.3702376 40.33183176 98.25872556 37.55859375 98.26220703 C36.58148438 98.26349609 35.604375 98.26478516 34.59765625 98.26611328 C33.57414062 98.26224609 32.550625 98.25837891 31.49609375 98.25439453 C30.47257812 98.25826172 29.4490625 98.26212891 28.39453125 98.26611328 C27.41742188 98.26482422 26.4403125 98.26353516 25.43359375 98.26220703 C24.53511719 98.2610791 23.63664062 98.25995117 22.7109375 98.25878906 C20.49609375 98.12939453 20.49609375 98.12939453 18.49609375 97.12939453 C18.49609375 73.36939453 18.49609375 49.60939453 18.49609375 25.12939453 C10.90609375 25.12939453 3.31609375 25.12939453 -4.50390625 25.12939453 C-6.18907579 23.44422499 -5.63398644 21.34171665 -5.63671875 19.03564453 C-5.63865234 17.49070312 -5.63865234 17.49070312 -5.640625 15.91455078 C-5.63675781 14.83044922 -5.63289063 13.74634766 -5.62890625 12.62939453 C-5.63277344 11.54529297 -5.63664062 10.46119141 -5.640625 9.34423828 C-5.63933594 8.31427734 -5.63804688 7.28431641 -5.63671875 6.22314453 C-5.63559082 5.27117188 -5.63446289 4.31919922 -5.63330078 3.33837891 C-5.39953774 -0.65235325 -3.5237908 0.00330806 0 0 Z " fill="#030303" transform="translate(52.50390625,44.87060546875)"/>
<path d="M0 0 C1.43653931 -0.00472824 1.43653931 -0.00472824 2.90209961 -0.009552 C3.94374268 -0.00752777 4.98538574 -0.00550354 6.05859375 -0.00341797 C7.12021729 -0.00437469 8.18184082 -0.00533142 9.27563477 -0.00631714 C11.52522847 -0.00699911 13.77482412 -0.00514366 16.02441406 -0.00097656 C19.48116446 0.00437143 22.93778492 -0.00092101 26.39453125 -0.00732422 C28.57421904 -0.00666344 30.75390675 -0.00538228 32.93359375 -0.00341797 C34.49605835 -0.00645432 34.49605835 -0.00645432 36.09008789 -0.009552 C37.04778076 -0.00639984 38.00547363 -0.00324768 38.9921875 0 C39.83966553 0.00079559 40.68714355 0.00159119 41.56030273 0.00241089 C43.49609375 0.12939453 43.49609375 0.12939453 44.49609375 1.12939453 C44.74818097 4.93527598 44.68131719 8.75364909 44.68359375 12.56689453 C44.69583984 13.64261719 44.70808594 14.71833984 44.72070312 15.82666016 C44.72263672 16.85339844 44.72457031 17.88013672 44.7265625 18.93798828 C44.73067139 19.88472412 44.73478027 20.83145996 44.73901367 21.80688477 C44.49609375 24.12939453 44.49609375 24.12939453 42.49609375 26.12939453 C40.24951172 26.35644531 40.24951172 26.35644531 37.48828125 26.32470703 C36.50214844 26.31826172 35.51601563 26.31181641 34.5 26.30517578 C32.95119141 26.28003906 32.95119141 26.28003906 31.37109375 26.25439453 C30.33082031 26.24537109 29.29054688 26.23634766 28.21875 26.22705078 C25.64430283 26.203432 23.07031163 26.17049602 20.49609375 26.12939453 C20.5118042 27.65862549 20.5118042 27.65862549 20.52783203 29.21875 C20.56398102 32.99443055 20.58697552 36.77009574 20.60595703 40.54589844 C20.61602629 42.18134125 20.62968256 43.81676602 20.64697266 45.45214844 C20.6711808 47.80033823 20.68256732 50.14829041 20.69140625 52.49658203 C20.70172882 53.22996796 20.71205139 53.96335388 20.72268677 54.71896362 C20.72308743 56.5240215 20.6182213 58.32847283 20.49609375 60.12939453 C18.49609375 62.12939453 18.49609375 62.12939453 16.52270508 62.37663269 C15.71599365 62.37520767 14.90928223 62.37378265 14.078125 62.37231445 C13.16377686 62.37539108 12.24942871 62.37846771 11.30737305 62.38163757 C9.82297729 62.3708593 9.82297729 62.3708593 8.30859375 62.35986328 C6.78842651 62.35917595 6.78842651 62.35917595 5.23754883 62.35847473 C3.09227327 62.35545022 0.94699994 62.34755803 -1.19824219 62.33520508 C-4.49031313 62.31696983 -7.78210263 62.31469521 -11.07421875 62.31494141 C-13.15495036 62.31002552 -15.23568005 62.30419689 -17.31640625 62.29736328 C-18.30600342 62.29625046 -19.29560059 62.29513763 -20.31518555 62.29399109 C-21.22953369 62.28761124 -22.14388184 62.28123138 -23.0859375 62.2746582 C-23.89264893 62.27084641 -24.69936035 62.26703461 -25.53051758 62.2631073 C-27.50390625 62.12939453 -27.50390625 62.12939453 -29.50390625 61.12939453 C-29.50390625 52.87939453 -29.50390625 44.62939453 -29.50390625 36.12939453 C-21.58390625 36.12939453 -13.66390625 36.12939453 -5.50390625 36.12939453 C-5.51550781 33.61443359 -5.52710938 31.09947266 -5.5390625 28.50830078 C-5.54685298 26.08243944 -5.55292979 23.65657946 -5.55883789 21.23071289 C-5.56387815 19.53995138 -5.5707103 17.84919424 -5.5793457 16.15844727 C-5.59142482 13.73338746 -5.59713748 11.30838509 -5.6015625 8.88330078 C-5.60672379 8.12287979 -5.61188507 7.3624588 -5.61720276 6.57899475 C-5.61739863 4.76206883 -5.56587902 2.94526326 -5.50390625 1.12939453 C-3.90338961 -0.47112211 -2.21544503 0.00207981 0 0 Z " fill="#010101" transform="translate(269.50390625,80.87060546875)"/>
<path d="M0 0 C3.97915159 -0.02886984 7.95827653 -0.04675406 11.9375 -0.0625 C13.07380859 -0.07087891 14.21011719 -0.07925781 15.38085938 -0.08789062 C16.46044922 -0.09111328 17.54003906 -0.09433594 18.65234375 -0.09765625 C20.15269165 -0.10551147 20.15269165 -0.10551147 21.68334961 -0.11352539 C24 0 24 0 25 1 C25.14310287 4.6691577 25.04221662 8.32715441 25 12 C28.96 12 32.92 12 37 12 C37 20.25 37 28.5 37 37 C27 38 27 38 25 38 C25 41.3 25 44.6 25 48 C25.78246094 47.98839844 26.56492188 47.97679687 27.37109375 47.96484375 C28.38300781 47.95582031 29.39492187 47.94679687 30.4375 47.9375 C31.44683594 47.92589844 32.45617187 47.91429687 33.49609375 47.90234375 C36 48 36 48 37 49 C37.08726223 50.78071246 37.10699041 52.5648314 37.09765625 54.34765625 C37.09443359 55.42724609 37.09121094 56.50683594 37.08789062 57.61914062 C37.07532227 59.32360352 37.07532227 59.32360352 37.0625 61.0625 C37.05798828 62.20267578 37.05347656 63.34285156 37.04882812 64.51757812 C37.03699747 67.34510351 37.0205141 70.1725264 37 73 C34.00717264 74.49641368 30.93721394 74.14222979 27.65625 74.1328125 C26.56890564 74.13424759 26.56890564 74.13424759 25.45959473 74.13571167 C23.92635003 74.13639243 22.39310245 74.13454536 20.85986328 74.13037109 C18.50937442 74.12502134 16.15907665 74.13031953 13.80859375 74.13671875 C12.32031208 74.13605795 10.83203052 74.13477675 9.34375 74.1328125 C8.63851196 74.13483673 7.93327393 74.13686096 7.20666504 74.13894653 C2.22992486 74.11496243 2.22992486 74.11496243 0 73 C-1.74430155 64.70491244 -1.05400506 55.77914519 -0.87890625 47.36328125 C-0.85453777 45.98895665 -0.83069789 44.6146226 -0.80735779 43.24028015 C-0.74518469 39.66135695 -0.6759373 36.08260606 -0.60510254 32.50384521 C-0.53380714 28.83662618 -0.46935936 25.1692871 -0.40429688 21.50195312 C-0.27614832 14.33450244 -0.14050927 7.16722017 0 0 Z " fill="#010101" transform="translate(156,69)"/>
<path d="M0 0 C5.10863896 -0.0246501 10.21724359 -0.04283607 15.32592773 -0.05493164 C17.06519168 -0.05997204 18.80445136 -0.0668043 20.54370117 -0.07543945 C23.03825937 -0.08751792 25.53276173 -0.09323108 28.02734375 -0.09765625 C28.80963852 -0.10281754 29.59193329 -0.10797882 30.39793396 -0.11329651 C32.26567114 -0.11349226 34.13329204 -0.06199694 36 0 C37 1 37 1 37.11352539 3.22485352 C37.10828857 4.18319092 37.10305176 5.14152832 37.09765625 6.12890625 C37.09443359 7.16337891 37.09121094 8.19785156 37.08789062 9.26367188 C37.07532227 10.8965918 37.07532227 10.8965918 37.0625 12.5625 C37.05798828 13.65498047 37.05347656 14.74746094 37.04882812 15.87304688 C37.03699826 18.58208495 37.02051543 21.29101599 37 24 C32.69214025 25.35148541 29.58042408 26 25 26 C25 29.3 25 32.6 25 36 C25.78246094 35.98839844 26.56492188 35.97679687 27.37109375 35.96484375 C28.38300781 35.95582031 29.39492187 35.94679687 30.4375 35.9375 C31.44683594 35.92589844 32.45617187 35.91429687 33.49609375 35.90234375 C36 36 36 36 37 37 C37.08726223 38.78071246 37.10699041 40.5648314 37.09765625 42.34765625 C37.09443359 43.42724609 37.09121094 44.50683594 37.08789062 45.61914062 C37.07532227 47.32360352 37.07532227 47.32360352 37.0625 49.0625 C37.05798828 50.20267578 37.05347656 51.34285156 37.04882812 52.51757812 C37.03699747 55.34510351 37.0205141 58.1725264 37 61 C33.95634906 62.52182547 30.77787609 62.18360092 27.4375 62.203125 C26.69040771 62.20882507 25.94331543 62.21452515 25.17358398 62.22039795 C23.59327613 62.22984679 22.01294859 62.23638147 20.43261719 62.24023438 C18.0094194 62.24996219 15.58706193 62.28099412 13.1640625 62.3125 C11.63021338 62.31902787 10.09635819 62.32427919 8.5625 62.328125 C7.83538818 62.3404718 7.10827637 62.3528186 6.35913086 62.36553955 C4.31640625 62.35644531 4.31640625 62.35644531 1 62 C-1.45840952 58.31238572 -1.22213112 56.61461101 -1.15625 52.21875 C-1.14815308 51.52390503 -1.14005615 50.82906006 -1.13171387 50.11315918 C-1.09982308 47.74174957 -1.05099081 45.37107282 -1 43 C-0.98356445 42.13455566 -0.96712891 41.26911133 -0.95019531 40.37744141 C-0.82397743 33.75100241 -0.66500246 27.12556874 -0.5 20.5 C-0.45164713 18.50130633 -0.40346895 16.50260842 -0.35546875 14.50390625 C-0.23898755 9.66921979 -0.12016183 4.83459632 0 0 Z " fill="#020202" transform="translate(108,81)"/>
<path d="M0 0 C12.21 0 24.42 0 37 0 C37 8.25 37 16.5 37 25 C33 26 33 26 25 26 C25 37.55 25 49.1 25 61 C22.57108818 62.21445591 20.99280557 62.12924198 18.28125 62.1328125 C17.34925781 62.13410156 16.41726562 62.13539063 15.45703125 62.13671875 C14.48121094 62.13285156 13.50539062 62.12898438 12.5 62.125 C11.03626953 62.13080078 11.03626953 62.13080078 9.54296875 62.13671875 C8.14498047 62.13478516 8.14498047 62.13478516 6.71875 62.1328125 C5.86216797 62.13168457 5.00558594 62.13055664 4.12304688 62.12939453 C2 62 2 62 0 61 C0 40.87 0 20.74 0 0 Z " fill="#010101" transform="translate(204,81)"/>
<path d="M0 0 C5.10863896 -0.0246501 10.21724359 -0.04283607 15.32592773 -0.05493164 C17.06519168 -0.05997204 18.80445136 -0.0668043 20.54370117 -0.07543945 C23.03825937 -0.08751792 25.53276173 -0.09323108 28.02734375 -0.09765625 C28.80963852 -0.10281754 29.59193329 -0.10797882 30.39793396 -0.11329651 C32.26567114 -0.11349226 34.13329204 -0.06199694 36 0 C37.68516954 1.68516954 37.13008019 3.78767788 37.1328125 6.09375 C37.13474609 7.63869141 37.13474609 7.63869141 37.13671875 9.21484375 C37.13285156 10.29894531 37.12898438 11.38304687 37.125 12.5 C37.13080078 14.12615234 37.13080078 14.12615234 37.13671875 15.78515625 C37.13542969 16.81511719 37.13414062 17.84507813 37.1328125 18.90625 C37.13168457 19.85822266 37.13055664 20.81019531 37.12939453 21.79101562 C37 24 37 24 36 25 C33.3337397 25.08855161 30.69352886 25.11524673 28.02734375 25.09765625 C27.22970108 25.0962413 26.43205841 25.09482635 25.61024475 25.09336853 C23.05262565 25.08775316 20.49509282 25.07519812 17.9375 25.0625 C16.20768355 25.05748698 14.47786574 25.05292373 12.74804688 25.04882812 C8.49866447 25.03777875 4.24934688 25.02050386 0 25 C-0.80542989 16.51200811 -1.12298921 8.46561098 0 0 Z " fill="#030303" transform="translate(108,45)"/>
<path d="M0 0 C8.25 0 16.5 0 25 0 C25 8.25 25 16.5 25 25 C16.75 25 8.5 25 0 25 C0 16.75 0 8.5 0 0 Z " fill="#040404" transform="translate(240,45)"/>
<path d="M0 0 C0.66 0 1.32 0 2 0 C2.05786668 3.79160297 2.09355054 7.58309311 2.125 11.375 C2.14175781 12.45523438 2.15851563 13.53546875 2.17578125 14.6484375 C2.18222656 15.6796875 2.18867188 16.7109375 2.1953125 17.7734375 C2.20578613 18.72653809 2.21625977 19.67963867 2.22705078 20.66162109 C2 23 2 23 0 25 C-2.24658203 25.22705078 -2.24658203 25.22705078 -5.0078125 25.1953125 C-6.34030029 25.18781982 -6.34030029 25.18781982 -7.69970703 25.18017578 C-8.83005371 25.16196777 -9.96040039 25.14375977 -11.125 25.125 C-14.71375 25.08375 -18.3025 25.0425 -22 25 C-22 36.22 -22 47.44 -22 59 C-22.66 59 -23.32 59 -24 59 C-24 47.12 -24 35.24 -24 23 C-16.08 23 -8.16 23 0 23 C0 15.41 0 7.82 0 0 Z " fill="#161616" transform="translate(312,82)"/>
</svg>
